/* XPM */
static char *geany[] = {
/* columns rows colors chars-per-pixel */
"32 32 257 2",
"   c black",
".  c #0E0000",
"X  c #0B0800",
"o  c #151000",
"O  c #211900",
"+  c #342A00",
"@  c #423200",
"#  c #6B2900",
"$  c #7E2E00",
"%  c #7E3F00",
"&  c #5B4800",
"*  c #6B5700",
"=  c #734200",
"-  c #7B6300",
";  c #7C8174",
":  c #B92D16",
">  c #BC3513",
",  c #BE3326",
"<  c #985800",
"1  c #8A7107",
"2  c #907700",
"3  c #977B00",
"4  c #BF5205",
"5  c #A87900",
"6  c #C82E1F",
"7  c #C53E33",
"8  c #C64214",
"9  c #CB5B17",
"0  c #C8423E",
"q  c #C85D36",
"w  c #C76119",
"e  c #CA7A06",
"r  c #D17E10",
"t  c #D17C28",
"y  c #CC5541",
"u  c #D95554",
"i  c #DA494B",
"p  c #CC644E",
"a  c #D17543",
"s  c #D36C63",
"d  c #DD7675",
"f  c #ED6F71",
"g  c #98800B",
"h  c #AD8400",
"j  c #A98B02",
"k  c #A18304",
"l  c #AA9114",
"z  c #B18300",
"x  c #B38800",
"c  c #BA8F02",
"v  c #BC9500",
"b  c #BE9900",
"n  c #BB9C0D",
"m  c #B59A19",
"M  c #B99C18",
"N  c #B29713",
"B  c #BEA100",
"V  c #BBA32F",
"C  c #ADA369",
"Z  c #B7AE7D",
"A  c #C29C00",
"S  c #C39500",
"D  c #DC951C",
"F  c #DA8E37",
"G  c #D58428",
"H  c #C5A101",
"J  c #C6A409",
"K  c #C8A603",
"L  c #C8A60A",
"P  c #CDAD03",
"I  c #CBAA0C",
"U  c #CBAA13",
"Y  c #CDAD1A",
"T  c #C7A611",
"R  c #CEB40C",
"E  c #CFB11D",
"W  c #D3AC00",
"Q  c #DEAF00",
"!  c #DBA306",
"~  c #D0AF16",
"^  c #DCA015",
"/  c #D4B50B",
"(  c #DABB01",
")  c #D9BC0B",
"_  c #D5B504",
"`  c #D5B614",
"'  c #D2B41B",
"]  c #D8BB11",
"[  c #D7BA19",
"{  c #CCAE23",
"}  c #C8AE2F",
"|  c #C3A828",
" . c #CEB227",
".. c #D8A127",
"X. c #D2B421",
"o. c #D1B52C",
"O. c #D6BA23",
"+. c #D5BA2D",
"@. c #D8BC22",
"#. c #D8BD2B",
"$. c #D2B633",
"%. c #D5BA33",
"&. c #D6BB3B",
"*. c #D9BE32",
"=. c #D9BE3A",
"-. c #E2BB00",
";. c #E4AF2B",
":. c #E5B422",
">. c #D6804C",
",. c #D88F54",
"<. c #D8934F",
"1. c #DC9553",
"2. c #D58361",
"3. c #D5BC43",
"4. c #D7BE48",
"5. c #D0BA50",
"6. c #E2BF54",
"7. c #E2A658",
"8. c #E8BC6C",
"9. c #E4B471",
"0. c #DDC205",
"q. c #DCC00A",
"w. c #DCC01E",
"e. c #DFC414",
"r. c #DFC72D",
"t. c #D9C021",
"y. c #DBC135",
"u. c #DCC33C",
"i. c #DFCC36",
"p. c #E3C501",
"a. c #E4CA00",
"s. c #E9CD02",
"d. c #E6CC0E",
"f. c #E4CA16",
"g. c #EBC81C",
"h. c #EDD505",
"j. c #EDD50E",
"k. c #EED611",
"l. c #EBD41A",
"z. c #EFD814",
"x. c #F0D913",
"c. c #F2DC1D",
"v. c #E3CD2C",
"b. c #E5CC25",
"n. c #E0C834",
"m. c #E4CD3C",
"M. c #E0C734",
"N. c #EBD624",
"B. c #EAD629",
"V. c #ECD63C",
"C. c #EDD931",
"Z. c #EFD93D",
"A. c #F1DB24",
"S. c #F2D72A",
"D. c #F2DC37",
"F. c #FFF100",
"G. c #F5E034",
"H. c #F8E43A",
"J. c #DBC345",
"K. c #DCC44B",
"L. c #DBC350",
"P. c #DEC865",
"I. c #E1CA43",
"U. c #E1CA4C",
"Y. c #E2CD51",
"T. c #E7C859",
"R. c #E6D146",
"E. c #E6D04A",
"W. c #E8D44E",
"Q. c #EEDA4C",
"!. c #E9D544",
"~. c #E6D25B",
"^. c #EDDB53",
"/. c #EDDB5E",
"(. c #E8D352",
"). c #F2D844",
"_. c #F0DD54",
"`. c #E2CE64",
"'. c #EBC566",
"]. c #E4D064",
"[. c #E6D46A",
"{. c #E9D662",
"}. c #EEDE67",
"|. c #ECDB6D",
" X c #EBDA74",
".X c #EBDC7D",
"XX c #E6D370",
"oX c #F0DF63",
"OX c #F1D979",
"+X c #FBE84D",
"@X c #F7E445",
"#X c #F4E254",
"$X c #FBE959",
"%X c #F9E857",
"&X c #EFE07C",
"*X c #F4E465",
"=X c #F3E36B",
"-X c #F6E86E",
";X c #FBEB6D",
":X c #FCEB62",
">X c #F3E474",
",X c #F4E57F",
"<X c #F7E872",
"1X c #F9EC75",
"2X c #FAED7C",
"3X c #F7E779",
"4X c #FFFF78",
"5X c #A4A89F",
"6X c #A6AAA1",
"7X c #B3B6AE",
"8X c #BBBBA8",
"9X c #B7BAB3",
"0X c #B9BCB5",
"qX c #BCBFB8",
"wX c #B4B7B0",
"eX c #C4BA82",
"rX c #C0C3BD",
"tX c #C0C1B2",
"yX c #C7C3A5",
"uX c #E6D787",
"iX c #EADB84",
"pX c #EDDF8F",
"aX c #EDDE90",
"sX c #EFE18A",
"dX c #EEE092",
"fX c #F4E683",
"gX c #FAED82",
"hX c #F9ED8A",
"jX c #F0E38E",
"kX c #F6EA93",
"lX c #F4E99D",
"zX c #F9EF9A",
"xX c #F6E997",
"cX c #FAF19D",
"vX c #F1E6A5",
"bX c #F1E7AE",
"nX c #F4EAAD",
"mX c #F6ECA6",
"MX c #F9F1A2",
"NX c #C4C6C1",
"BX c #C6C8C3",
"VX c #CACCC6",
"CX c #CED0CC",
"ZX c #D0D2CE",
"AX c #D4D6D1",
"SX c #DBDCD9",
"DX c #DFE0DD",
"FX c #C7FFFF",
"GX c #E0E1DE",
"HX c #E4E5E2",
"JX c #E7E8E6",
"KX c #EBEBE8",
"LX c #F1F1EF",
"PX c #F5F5F4",
"IX c #F8F8F7",
"UX c #FAFAFA",
"YX c None",
/* pixels */
"YX7XNXAXAXZXqX9XYXYXYXYXYXYXYXYXYXYXYXYXYXYXYXYXYXYXYXYXYXYXYXYX",
"7XNXKXUXUXPXSXqXYXYXYXYXYXYXYXYXYXYXYXYXYXYXYXYXYXYXYXYXYXYXYXYX",
"9XSXUXUXUXIXPXCX6XYXYXYXYXYXYXYXYXYXYXYXYXYXYXYXYXYXYXYXYXYXYXYX",
"9XJXUXUXIXPXPXAX6XYXYXYXYXYXYXYXYXYXYXYXYXYXYXYXYXYXYXYXYXYXYXYX",
"9XJXUXIXIXPXPXZX6XYXYXYXYXYXYXYXYXYXYXYXYXYXYXYXYXYXYXYXYXYXYXYX",
"BXKXUXIXPXPXHXrX; YXYXYXYXYXYXYXYXYXYXYXYXYXYXYXYXYXYXYXYXYXYXYX",
"AXUXUXIXIXSXrX7XYXYXYXYXYXYXYXYXYXYXYXYXYXYXYXYXYXH H H H S YXYX",
"AXIXIXIXIXAX5XYXYXYXYXYXS J { X.Y A YXYXYXYXYXh H +.~.[.L.' A YX",
"BXJXPXIXPXZX5XYXYXYXS A A K.vXlX{.~ S v YXYXYXH r.[.m.b.Q.}.%.A ",
"7XBXPXUXUXAX6XYXA U $.P.4..XMX<X<Xu.K.3.Y A x U ].3.H K _ v./.X.",
"9XBXPXUXLXCXC J 4.uXvXnXfX[.,X#XoXm._.oX~.J.I ' L.J YXh A P !.=.",
"9XHXUXIXZX8XT P.bXMXMXMXzXI.~.=Xu.f.z.k.A.^.U.L H YXYXYXYXH i.%.",
"9XSXUXKXtXA 4.bXcXhXzXcX2XC.) / ) l.z.h.s.d.=Xu.H YXYXYXYXb y.+.",
"9XeXyXZ V ~  X[.dXMXcXcXgX$XD.A.A.A.c.z.N.Q.U.U.U YXYXYXYXv #.O.",
"YXn | 5.&.U .X|.K.P.iXjXkXhX2X;X%X#XQ.(.Y.@._ W.Y YXYXYXYXb #.O.",
"YXx 4.vXuXT .XcXOXT.U.U.U.K.K.K.u.y.t.q.( W ( E.Y YXYXYXYXb [ [ ",
"YX5 o.dXvX%..XMX9.q OX<X=X:X#X).B.l.k.h.! 9 W W.Y YXYXYXYXb [ ] ",
"YXYXH XXlXpXlXdX2.0 1.2X2X2XT.G S.A.x.s.t 7 e R.Y YXYXYXYXS ] / ",
"YXYXA &.pX>XkX.Xp u a gX2X<X>.6 D c.x.p.q u 9 R.U YXYXYXYXb ) / ",
"YXYXYXU XX X*X<X,., 8.gXgX7.s f 8 :.x.h.r : ..I.K YXYXYX# K 0._ ",
"YXYXYXv %..X*X*X'.<.,XgXgXa d f 6 ^ x.h.-.e m.*.v YXYXS L ) q.P ",
"YXYXYXYXH K.,X*X=X>X2XgXgX'.y i 9 c.x.h.p.f.W.T v U ' #.r.w.P A ",
"YXYXYXYXx K K.fX-X-X<X2X2X2XF > :.c.x.h.s.Q.=.&.J.J.J.i.' K v YX",
"YXYXYXYXYXv L =.>XgX3X3X2X1XV.;.S.c.x.k.).m.Y 4.J.3.{ H A YXYXYX",
"YXYXYXYXYXYX$.4.U.{.,XhXhX;X+XH.G.G.@XQ.y.r.K.=.c < . YXYXYXYXYX",
"YXYXYXYXYXL ].fX*XZ.y.u.{.>X>X>X*X^.u.' 0.f.m.~.$.2 YXYXYXYXYXYX",
"YXYXYXYXYXY fX:X+X+XZ.I K I U U I K H P a.p.( i.J.j     YXYXYXYX",
"YXYXYXYX  U  XgX$X+X+XZ.@.U L K J L R 0.a.p.e.R.+.3     YXYXYXYX",
"YXYXYXYX  2 { `.,X2X;X:X#XQ.!.R.i.v.v.N.B.V.E.+.j +     YXYXYXYX",
"YXYXYXYX    & k } 4.Y.|.>X>X>X=X}./.^.R.u.o.l - o       YXYXYXYX",
"YXYXYXYXYX    X @ & 1 l m m M M M m l g * @ O       YXYXYXYXYXYX",
"YXYXYXYXYXYXYXYX                                YXYXYXYXYXYXYXYX"
};
